<?xml version="1.0" standalone="no"?>
<!DOCTYPE svg PUBLIC "-//W3C//DTD SVG 20010904//EN"
 "http://www.w3.org/TR/2001/REC-SVG-20010904/DTD/svg10.dtd">
<svg version="1.0" xmlns="http://www.w3.org/2000/svg"
 width="512.000000pt" height="512.000000pt" viewBox="0 0 512.000000 512.000000"
 preserveAspectRatio="xMidYMid meet">
<metadata>
Created by potrace 1.14, written by Peter Selinger 2001-2017
</metadata>
<g transform="translate(0.000000,512.000000) scale(0.100000,-0.100000)"
fill="#000000" stroke="none">
<path d="M3785 5033 c-22 -2 -88 -12 -146 -23 -499 -93 -989 -455 -1258 -930
-32 -58 -74 -140 -92 -184 l-33 -78 -55 6 c-30 4 -56 8 -57 9 0 1 -19 74 -41
162 l-39 160 -230 3 c-348 5 -550 -22 -783 -103 -388 -135 -693 -383 -850
-690 -183 -357 -156 -746 76 -1099 64 -96 248 -278 358 -353 241 -163 565
-278 846 -300 l77 -6 41 -63 c45 -69 70 -91 231 -211 119 -89 200 -181 200
-226 0 -24 -25 -55 -140 -173 -177 -180 -205 -230 -205 -369 0 -108 19 -158
91 -235 155 -166 508 -250 1050 -250 288 0 429 27 609 115 77 38 144 81 225
146 163 130 178 136 381 142 514 18 822 143 940 382 54 111 75 319 44 440 -22
84 -79 198 -189 380 -111 184 -125 219 -106 266 8 18 66 88 130 155 149 158
175 203 175 304 0 64 -4 82 -28 122 -55 94 -152 133 -374 150 l-142 12 65 69
c223 236 387 549 455 867 29 136 32 422 6 538 -56 243 -155 423 -318 576 -231
219 -556 321 -914 289z m360 -178 c174 -36 313 -108 437 -224 94 -88 156 -171
203 -273 172 -373 103 -852 -184 -1279 -97 -145 -305 -369 -342 -369 -28 0
-135 31 -184 54 -72 33 -119 78 -167 159 -89 154 -206 220 -453 257 -38 6
-178 13 -310 16 l-240 6 -153 90 c-84 50 -155 94 -158 99 -2 4 34 85 81 180
48 94 85 172 83 174 -2 1 -78 12 -170 25 -93 13 -168 24 -168 26 0 12 75 163
113 226 270 454 741 781 1222 847 96 13 294 6 390 -14z m-2385 -879 c-14 -13
-153 -138 -310 -277 -157 -138 -286 -257 -287 -263 -2 -6 69 -64 157 -130 100
-73 157 -122 153 -130 -4 -6 -94 -115 -200 -242 -106 -128 -193 -234 -193
-238 0 -3 32 -22 71 -42 l72 -36 -74 -74 c-40 -40 -71 -75 -68 -77 2 -3 117
-84 254 -182 138 -98 254 -181 258 -185 4 -4 -9 -42 -30 -85 -31 -66 -37 -91
-41 -162 -4 -71 -7 -83 -22 -83 -53 0 -263 44 -362 76 -502 161 -836 513 -890
938 -37 293 102 620 357 838 283 242 652 371 1075 377 l105 1 -25 -24z m275
-291 c11 -2 121 -18 245 -36 124 -17 227 -33 230 -35 2 -3 -27 -67 -65 -144
-38 -77 -67 -141 -65 -143 3 -2 49 -30 102 -62 54 -33 96 -61 94 -62 -2 -2
-73 -8 -157 -13 -306 -19 -480 -70 -580 -169 -63 -64 -89 -124 -89 -208 0
-129 85 -222 272 -298 l79 -33 -48 -27 c-90 -52 -215 -138 -274 -186 -32 -27
-62 -49 -67 -49 -7 0 -359 246 -381 267 -3 2 33 42 79 88 46 46 82 86 79 89
-2 2 -38 20 -79 41 -41 21 -77 39 -78 40 -2 2 82 106 187 232 105 125 191 231
191 236 0 4 -68 57 -150 119 l-151 112 28 27 c15 15 138 125 273 244 l245 217
30 -121 c24 -101 33 -122 50 -126z m1416 -669 c187 -30 256 -69 326 -187 59
-100 121 -157 227 -209 109 -53 233 -76 481 -90 312 -17 377 -34 390 -103 10
-51 -12 -84 -140 -219 -127 -132 -175 -211 -175 -284 0 -66 42 -164 139 -324
147 -242 181 -323 181 -435 0 -355 -236 -497 -870 -523 -178 -8 -188 -9 -250
-38 -36 -17 -114 -70 -175 -118 -188 -150 -292 -199 -486 -231 -111 -18 -385
-20 -574 -5 -464 38 -699 150 -682 326 8 82 40 129 178 263 140 138 169 183
169 266 0 120 -88 229 -325 402 -144 106 -179 165 -180 308 0 81 3 95 30 145
59 109 199 222 498 405 108 65 135 112 102 175 -18 34 -49 52 -191 108 -162
64 -214 105 -214 167 0 122 167 190 523 215 203 14 905 5 1018 -14z"/>
<path d="M4510 4427 c-14 -12 -40 -34 -58 -49 l-32 -26 35 -58 c64 -105 88
-192 101 -366 l7 -88 78 0 79 0 0 63 c0 98 -26 246 -59 337 -28 76 -105 210
-120 210 -3 0 -17 -11 -31 -23z"/>
<path d="M4465 3503 c-9 -26 -42 -94 -71 -151 -30 -57 -54 -105 -54 -107 0 -5
100 -76 116 -82 8 -3 27 16 50 52 39 61 124 246 124 269 0 8 -25 23 -57 34
-32 11 -65 23 -74 26 -12 5 -20 -4 -34 -41z"/>
<path d="M400 2840 c0 -65 29 -189 61 -258 l29 -64 57 33 c87 48 83 42 56 109
-13 33 -29 96 -35 140 l-12 80 -78 0 -78 0 0 -40z"/>
<path d="M796 2321 l-57 -58 48 -40 c105 -87 328 -213 376 -213 15 0 62 119
55 140 -2 6 -37 25 -78 43 -85 37 -173 91 -241 148 l-46 38 -57 -58z"/>
<path d="M3125 2539 c-157 -20 -343 -90 -460 -173 -339 -242 -353 -623 -33
-878 345 -275 950 -276 1295 -1 276 220 310 531 84 775 -198 214 -539 320
-886 277z m270 -159 c243 -28 443 -130 542 -277 171 -255 -29 -546 -440 -640
-98 -22 -336 -22 -433 0 -226 51 -396 163 -466 305 -29 59 -33 76 -33 147 0
68 5 89 29 140 46 94 135 174 258 234 181 86 342 113 543 91z"/>
<path d="M3119 2225 c-178 -36 -342 -138 -386 -242 -25 -60 -21 -63 65 -63 74
0 80 2 107 30 61 63 184 113 310 126 l65 7 0 78 0 79 -47 -1 c-27 0 -78 -7
-114 -14z"/>
</g>
</svg>
